<svg xmlns="http://www.w3.org/2000/svg" width="45" height="45" viewBox="0 0 45 45">
  <g id="BURO_icon" data-name="BURO icon" transform="translate(-1.25 46.25)">
    <path id="Area" d="M0,0A5,5,0,0,1-5,5H-40a5,5,0,0,1-5-5V-35a5,5,0,0,1,5-5H-5a5,5,0,0,1,5,5Z" transform="translate(46.25 -6.25)" fill="#c455ff"/>
    <path id="B" d="M0,0H4.574C6.666,0,8.217-1.2,8.217-3.371c0-1.822-1.4-3.062-4.109-3.062H0ZM0-11.55H3.024a2.871,2.871,0,0,0,3.139-3.061c0-1.821-1.434-2.752-3.139-2.752H0Zm-5.812-8.023a2.788,2.788,0,0,1,3.061-2.906H4.69c4.03,0,7.288,2.712,7.288,6.821a5.728,5.728,0,0,1-3.606,5.7v.079a6.749,6.749,0,0,1,5.891,6.588c0,5.465-3.642,8.411-8.992,8.411H-2.713a2.87,2.87,0,0,1-3.1-2.946V-19.572Z" transform="translate(20.186 -15.116)" fill="#fff"/>
  </g>
</svg>
