<svg width="7.926" height="9.058" xmlns="http://www.w3.org/2000/svg">
 <defs>
  <style>.a{fill:#302450;}</style>
 </defs>
 <g>
  <title>Layer 1</title>
  <path class="a" d="m5.606,2.893l-0.575,-0.574l-2.872,2.872a1.219,1.219 0 0 0 1.723,1.724l3.448,-3.443a2.031,2.031 0 0 0 -2.873,-2.877l-3.62,3.62l-0.008,0.007a2.833,2.833 0 0 0 4.007,4.006l0.007,-0.008l0,0l2.472,-2.47l-0.575,-0.578l-2.475,2.474l0,0.008a2.02,2.02 0 0 1 -2.861,-2.857l0.008,-0.007l0,0l3.62,-3.618a1.219,1.219 0 0 1 1.724,1.723l-3.448,3.445a0.406,0.406 0 1 1 -0.575,-0.574l2.873,-2.873z" id="svg_1"/>
 </g>
</svg>