<svg xmlns="http://www.w3.org/2000/svg" width="16.064" height="17.738" viewBox="0 0 16.064 17.738">
  <g id="Book_a_Seat_icon_-_Selected" data-name="Book a Seat icon - Selected" transform="translate(-4 -2.5)">
    <path id="Path_205" data-name="Path 205" d="M6.174,6H17.89a1.674,1.674,0,0,1,1.674,1.674V19.39a1.674,1.674,0,0,1-1.674,1.674H6.174A1.674,1.674,0,0,1,4.5,19.39V7.674A1.674,1.674,0,0,1,6.174,6Z" transform="translate(0 -1.326)" fill="#050152" stroke="#050152" stroke-linecap="round" stroke-linejoin="round" stroke-width="1"/>
    <path id="Path_206" data-name="Path 206" d="M24,3V6.348" transform="translate(-8.621)" fill="#fff" stroke="#fff" stroke-linecap="round" stroke-linejoin="round" stroke-width="1"/>
    <path id="Path_207" data-name="Path 207" d="M12,3V6.348" transform="translate(-3.316)" fill="#050152" stroke="#fff" stroke-linecap="round" stroke-linejoin="round" stroke-width="1"/>
    <path id="Path_208" data-name="Path 208" d="M4.5,15H19.564" transform="translate(0 -5.305)" fill="#050152" stroke="#fff" stroke-linecap="round" stroke-linejoin="round" stroke-width="1"/>
    <path id="Icon_ionic-ios-add" data-name="Icon ionic-ios-add" d="M16.028,12.262H13.2V9.434a.469.469,0,0,0-.938,0v2.828H9.434a.469.469,0,0,0,0,.938h2.828v2.828a.469.469,0,1,0,.938,0V13.2h2.828a.469.469,0,1,0,0-.938Z" transform="translate(-0.699 2.035)" fill="#fff"/>
  </g>
</svg>
