<svg xmlns="http://www.w3.org/2000/svg" width="15.652" height="20" viewBox="0 0 15.652 20">
  <g id="Building_Icon" data-name="Building Icon" transform="translate(-25 -308)">
    <path id="Path_225" data-name="Path 225" d="M6,21V9.261A1.739,1.739,0,0,1,7.739,7.522h0V5.783a.87.87,0,0,1,.87-.87h.87V1.435a.435.435,0,1,1,.87,0V4.913h.87a.87.87,0,0,1,.87.87V7.522h0a1.739,1.739,0,0,1,1.739,1.739v3.478H16.87V10.13h1.739v-1.3h2.609v1.3h.435V21ZM11.217,6.217a.435.435,0,0,0-.435-.435H9.043a.435.435,0,0,0-.435.435v1.3h2.609Zm1.739,3.043a.87.87,0,0,0-.87-.87H7.739a.87.87,0,0,0-.87.87V20.13h6.087Zm3.913,4.348H13.826V20.13H16.87ZM20.783,11H17.739v9.13h3.043Zm-1.739,1.3h.435a.434.434,0,0,1,.435.435v.435a.434.434,0,0,1-.435.435h-.435a.434.434,0,0,1-.435-.435v-.435A.434.434,0,0,1,19.043,12.3Zm0,2.609h.435a.434.434,0,0,1,.435.435v.435a.434.434,0,0,1-.435.435h-.435a.434.434,0,0,1-.435-.435v-.435A.434.434,0,0,1,19.043,14.913Zm0,2.609h.435a.434.434,0,0,1,.435.435v.435a.434.434,0,0,1-.435.435h-.435a.434.434,0,0,1-.435-.435v-.435A.434.434,0,0,1,19.043,17.522ZM15.13,14.913h.435a.434.434,0,0,1,.435.435v.435a.434.434,0,0,1-.435.435H15.13a.434.434,0,0,1-.435-.435v-.435A.434.434,0,0,1,15.13,14.913Zm0,2.609h.435a.434.434,0,0,1,.435.435v.435a.434.434,0,0,1-.435.435H15.13a.434.434,0,0,1-.435-.435v-.435A.434.434,0,0,1,15.13,17.522Zm-3.913,1.3h-.435a.434.434,0,0,1-.435-.435v-.435a.435.435,0,0,1,.435-.435h.435a.435.435,0,0,1,.435.435v.435A.434.434,0,0,1,11.217,18.826Zm0-2.609h-.435a.434.434,0,0,1-.435-.435v-.435a.435.435,0,0,1,.435-.435h.435a.435.435,0,0,1,.435.435v.435A.434.434,0,0,1,11.217,16.217Zm0-2.609h-.435a.434.434,0,0,1-.435-.435v-.435a.435.435,0,0,1,.435-.435h.435a.435.435,0,0,1,.435.435v.435A.434.434,0,0,1,11.217,13.609Zm0-2.609h-.435a.434.434,0,0,1-.435-.435V10.13a.435.435,0,0,1,.435-.435h.435a.435.435,0,0,1,.435.435v.435A.434.434,0,0,1,11.217,11ZM9.043,18.826H8.609a.434.434,0,0,1-.435-.435v-.435a.434.434,0,0,1,.435-.435h.435a.434.434,0,0,1,.435.435v.435A.434.434,0,0,1,9.043,18.826Zm0-2.609H8.609a.434.434,0,0,1-.435-.435v-.435a.434.434,0,0,1,.435-.435h.435a.434.434,0,0,1,.435.435v.435A.434.434,0,0,1,9.043,16.217Zm0-2.609H8.609a.434.434,0,0,1-.435-.435v-.435a.435.435,0,0,1,.435-.435h.435a.435.435,0,0,1,.435.435v.435A.434.434,0,0,1,9.043,13.609Zm0-2.609H8.609a.434.434,0,0,1-.435-.435V10.13A.435.435,0,0,1,8.609,9.7h.435a.435.435,0,0,1,.435.435v.435A.434.434,0,0,1,9.043,11Z" transform="translate(19 307)" fill="#626262" fill-rule="evenodd"/>
  </g>
</svg>
