<svg xmlns="http://www.w3.org/2000/svg" width="7.926" height="8.731" viewBox="0 0 7.926 8.731"><defs><style>.a{fill:none;stroke:#626262;stroke-linecap:round;stroke-linejoin:round;stroke-miterlimit:10;stroke-width:0.679px;}</style></defs><g transform="translate(0.34 0.34)"><path class="a" d="M0,.2H7.176" transform="translate(0.037 2.78)"/><path class="a" d="M.2.2h0" transform="translate(5.212 4.352)"/><path class="a" d="M.2.2h0" transform="translate(3.426 4.352)"/><path class="a" d="M.2.2h0" transform="translate(1.636 4.352)"/><path class="a" d="M.2.2h0" transform="translate(5.212 5.916)"/><path class="a" d="M.2.2h0" transform="translate(3.426 5.916)"/><path class="a" d="M.2.2h0" transform="translate(1.636 5.916)"/><path class="a" d="M.2,0V1.325" transform="translate(5.05)"/><path class="a" d="M.2,0V1.325" transform="translate(1.798)"/><path class="a" d="M5.329,0H1.921A1.732,1.732,0,0,0,0,1.869V5.512a1.749,1.749,0,0,0,1.921,1.9H5.326A1.733,1.733,0,0,0,7.246,5.543V1.869A1.726,1.726,0,0,0,5.329,0Z" transform="translate(0 0.636)"/></g></svg>