<svg width="352" height="352" xmlns="http://www.w3.org/2000/svg" role="img" class="svg-inline--fa fa-times fa-w-11" data-icon="times" data-prefix="fas" focusable="false" aria-hidden="true">
 <g>
  <title>Layer 1</title>
  <path id="svg_1" d="m242.72,176l100.07,-100.07c12.28,-12.28 12.28,-32.19 0,-44.48l-22.24,-22.24c-12.28,-12.28 -32.19,-12.28 -44.48,0l-100.07,100.07l-100.07,-100.07c-12.28,-12.28 -32.19,-12.28 -44.48,0l-22.24,22.24c-12.28,12.28 -12.28,32.19 0,44.48l100.07,100.07l-100.07,100.07c-12.28,12.28 -12.28,32.19 0,44.48l22.24,22.24c12.28,12.28 32.2,12.28 44.48,0l100.07,-100.07l100.07,100.07c12.28,12.28 32.2,12.28 44.48,0l22.24,-22.24c12.28,-12.28 12.28,-32.19 0,-44.48l-100.07,-100.07z" fill="#FFFFFF"/>
 </g>

</svg>