<svg xmlns="http://www.w3.org/2000/svg" width="105" height="120" viewBox="0 0 105 120">
  <path id="Icon_awesome-calendar-times" data-name="Icon awesome-calendar-times" d="M102.188,37.5H2.813A2.821,2.821,0,0,1,0,34.688V26.25A11.253,11.253,0,0,1,11.25,15H22.5V2.813A2.821,2.821,0,0,1,25.313,0h9.375A2.821,2.821,0,0,1,37.5,2.813V15h30V2.813A2.821,2.821,0,0,1,70.313,0h9.375A2.821,2.821,0,0,1,82.5,2.813V15H93.75A11.253,11.253,0,0,1,105,26.25v8.438A2.821,2.821,0,0,1,102.188,37.5ZM2.813,45h99.375A2.821,2.821,0,0,1,105,47.813V108.75A11.253,11.253,0,0,1,93.75,120H11.25A11.253,11.253,0,0,1,0,108.75V47.813A2.821,2.821,0,0,1,2.813,45Zm60.3,37.5L74.391,71.227a2.815,2.815,0,0,0,0-3.984l-6.633-6.633a2.815,2.815,0,0,0-3.984,0L52.5,71.883,41.227,60.609a2.815,2.815,0,0,0-3.984,0l-6.633,6.633a2.815,2.815,0,0,0,0,3.984L41.883,82.5,30.609,93.773a2.815,2.815,0,0,0,0,3.984l6.633,6.633a2.815,2.815,0,0,0,3.984,0L52.5,93.117l11.273,11.273a2.815,2.815,0,0,0,3.984,0l6.633-6.633a2.815,2.815,0,0,0,0-3.984Z" fill="#c06feb"/>
</svg>
