<svg xmlns="http://www.w3.org/2000/svg" width="7.926" height="8.968" viewBox="0 0 7.926 8.968"><defs><style>.a{fill:#626262;}</style></defs><path class="a" d="M5.154.793a3.293,3.293,0,0,0-2.028.68A2.983,2.983,0,0,0,2.051,3.9,5.58,5.58,0,0,0,3.507,7.131,13.068,13.068,0,0,0,4.928,8.64a.344.344,0,0,0,.455,0A13.067,13.067,0,0,0,6.8,7.131,5.58,5.58,0,0,0,8.259,3.9,2.983,2.983,0,0,0,7.185,1.473,3.3,3.3,0,0,0,5.154.793Zm0,.69a2.66,2.66,0,0,1,1.6.529A2.232,2.232,0,0,1,7.57,3.9a5.069,5.069,0,0,1-1.3,2.8A13.39,13.39,0,0,1,5.157,7.91,13.57,13.57,0,0,1,4.044,6.7a5.128,5.128,0,0,1-1.3-2.8,2.232,2.232,0,0,1,.812-1.886,2.653,2.653,0,0,1,1.6-.529Zm0,.7A1.725,1.725,0,1,0,6.88,3.906,1.73,1.73,0,0,0,5.154,2.18Zm0,.69A1.034,1.034,0,1,1,4.121,3.906,1.032,1.032,0,0,1,5.154,2.87Zm-1.731,4.9-.023,0a6.082,6.082,0,0,0-1.7.356.777.777,0,0,0-.468.389.518.518,0,0,0-.008.389.619.619,0,0,0,.211.26,3.178,3.178,0,0,0,1.441.44,15.97,15.97,0,0,0,2.276.15A15.97,15.97,0,0,0,7.43,9.61a3.2,3.2,0,0,0,1.443-.44.612.612,0,0,0,.211-.257.525.525,0,0,0-.008-.392.775.775,0,0,0-.468-.389,6.057,6.057,0,0,0-1.7-.356.345.345,0,0,0-.071.687,6.691,6.691,0,0,1,1.389.262,4.845,4.845,0,0,1-.9.2,15.359,15.359,0,0,1-2.174.143,15.348,15.348,0,0,1-2.173-.143,4.853,4.853,0,0,1-.905-.2,7.282,7.282,0,0,1,1.393-.262.346.346,0,0,0-.046-.69Z" transform="translate(-1.192 -0.793)"/></svg>