<svg xmlns="http://www.w3.org/2000/svg" width="14.403" height="17.738" viewBox="0 0 14.403 17.738">
  <g id="My_Profile_icon_-_Selected" data-name="My Profile icon - Selected" transform="translate(0.5 0.5)">
    <circle id="Oval" cx="4.017" cy="4.017" r="4.017" transform="translate(2.678)" fill="#050152" stroke="#050152" stroke-linecap="round" stroke-linejoin="round" stroke-miterlimit="10" stroke-width="1"/>
    <path id="Path" d="M0,2.676a1.971,1.971,0,0,1,.194-.861A3.57,3.57,0,0,1,2.686.378,14.779,14.779,0,0,1,4.757.085a22.051,22.051,0,0,1,3.875,0A14.955,14.955,0,0,1,10.7.378,3.435,3.435,0,0,1,13.2,1.815a2.021,2.021,0,0,1,0,1.73A3.4,3.4,0,0,1,10.7,4.974a13.849,13.849,0,0,1-2.071.3,22.743,22.743,0,0,1-3.155.049,3.575,3.575,0,0,1-.72-.049,13.58,13.58,0,0,1-2.063-.3,3.418,3.418,0,0,1-2.5-1.429A2.028,2.028,0,0,1,0,2.676Z" transform="translate(0 11.382)" fill="#050152" stroke="#050152" stroke-linecap="round" stroke-linejoin="round" stroke-miterlimit="10" stroke-width="1"/>
  </g>
</svg>
