<svg xmlns="http://www.w3.org/2000/svg" width="16.348" height="17.704" viewBox="0 0 16.348 17.704">
  <g id="Person_Booking_Icon" data-name="Person Booking Icon" transform="translate(-3.769 -2.565)">
    <path id="Path_238" data-name="Path 238" d="M21.374,15.272a.477.477,0,0,0,.291.111.4.4,0,0,0,.291-.111l2.99-2.676a.334.334,0,0,0,0-.52.435.435,0,0,0-.581,0l-2.7,2.416-1.2-1.078a.435.435,0,0,0-.581,0,.334.334,0,0,0,0,.52ZM20.71,4.308c0-1.97-1.5-3.308-3.655-3.308C14.854,1,13.4,2.338,13.4,4.308s1.5,4.163,3.655,4.163S20.71,6.278,20.71,4.308Zm-6.479,0a2.517,2.517,0,0,1,2.824-2.565,2.517,2.517,0,0,1,2.824,2.565c0,1.784-1.329,3.419-2.824,3.419S14.231,6.129,14.231,4.308Z" transform="translate(-6.741 1.69)" fill="#626262" stroke="#626262" stroke-width="0.25"/>
    <path id="Path_239" data-name="Path 239" d="M2.272,28.885H8.294a4.635,4.635,0,0,0,4.081,2.737c2.543,0,4.617-2.324,4.617-5.211a4.944,4.944,0,0,0-4.65-5.211,4.323,4.323,0,0,0-2.877,1.125,11,11,0,0,0-1.171-.075c-.535,0-1.071,0-1.572.037a7.261,7.261,0,0,0-3.446,1.05,5.1,5.1,0,0,0-2.342,3.6,1.823,1.823,0,0,0,.3,1.387A1.252,1.252,0,0,0,2.272,28.885Zm14.051-2.474a4.229,4.229,0,0,1-3.981,4.461,4.229,4.229,0,0,1-3.981-4.461,4.229,4.229,0,0,1,3.981-4.461A4.253,4.253,0,0,1,16.323,26.411Zm-14.686.712h0a4.429,4.429,0,0,1,1.84-3,7.691,7.691,0,0,1,3.948-1.087h.87a2.573,2.573,0,0,1,.535.037,5.5,5.5,0,0,0-1.1,3.374,5.772,5.772,0,0,0,.268,1.724H2.272a.62.62,0,0,1-.5-.262A1.079,1.079,0,0,1,1.636,27.123Z" transform="translate(3 -11.478)" fill="#626262" stroke="#626262" stroke-width="0.25"/>
  </g>
</svg>
