<svg xmlns="http://www.w3.org/2000/svg" width="31.722" height="34.275" viewBox="0 0 31.722 34.275">
  <g id="In-Person_Tech_Support" data-name="In-Person Tech Support" transform="translate(-19.139 0.5)">
    <path id="Path_239" data-name="Path 239" d="M45.928,7.209a3.6,3.6,0,1,0-3.6-3.6A3.608,3.608,0,0,0,45.928,7.209Zm0-6.861A3.256,3.256,0,1,1,42.672,3.6,3.26,3.26,0,0,1,45.928.348ZM49.15,14.716H29.089V13.571H33.6a.867.867,0,0,0,.865-.866V5.919a.866.866,0,0,0-.865-.865H21.932a.866.866,0,0,0-.865.865V12.7a.867.867,0,0,0,.865.866h4.505v1.145H20.85a1.213,1.213,0,0,0-1.211,1.211v3.027a1.212,1.212,0,0,0,1.211,1.211h.565V31.641a1.636,1.636,0,0,0,1.634,1.634h23.9a1.637,1.637,0,0,0,1.636-1.634V20.165h.564a1.212,1.212,0,0,0,1.211-1.211V15.928A1.213,1.213,0,0,0,49.15,14.716ZM21.932,13.223a.518.518,0,0,1-.517-.518V5.919a.518.518,0,0,1,.517-.517H33.6a.518.518,0,0,1,.517.517V12.7a.518.518,0,0,1-.517.518H29.089V9.011a1.326,1.326,0,0,0-2.652,0v4.213Zm4.853-4.213a.978.978,0,0,1,1.956,0v5.706H26.785Zm21.452,22.63a1.288,1.288,0,0,1-1.288,1.286h-23.9a1.287,1.287,0,0,1-1.286-1.286V20.165H48.237V31.641Zm1.776-12.686a.864.864,0,0,1-.863.863H20.85a.864.864,0,0,1-.863-.863V15.928a.864.864,0,0,1,.863-.863h28.3a.864.864,0,0,1,.863.863Z" transform="translate(0 0)" fill="#626262" stroke="#626262" stroke-width="1"/>
    <path id="Path_240" data-name="Path 240" d="M421.643,20.585h1.551a.174.174,0,1,0,0-.348h-1.377V18.149a.174.174,0,1,0-.348,0v2.262A.174.174,0,0,0,421.643,20.585Z" transform="translate(-375.715 -16.807)" fill="#626262" stroke="#626262" stroke-width="1"/>
  </g>
</svg>
