<svg xmlns="http://www.w3.org/2000/svg" width="25.479" height="25.483" viewBox="0 0 25.479 25.483">
  <g id="Icon_awesome-tools" data-name="Icon awesome-tools" transform="translate(1.981 1.981)" fill="none">
    <path d="M21.532,17,16.5,11.971a3.19,3.19,0,0,0-3.67-.6L8.25,6.793V4.125L2.75,0,0,2.75l4.125,5.5H6.793l4.58,4.58a3.2,3.2,0,0,0,.6,3.67L17,21.532a1.6,1.6,0,0,0,2.264,0l2.264-2.264a1.605,1.605,0,0,0,0-2.264ZM14.253,9.668A4.521,4.521,0,0,1,17.471,11l.834.834a6.082,6.082,0,0,0,1.882-1.268,6.179,6.179,0,0,0,1.629-5.874.514.514,0,0,0-.864-.236l-3.2,3.2-2.918-.486L14.352,4.25l3.2-3.2A.519.519,0,0,0,17.3.185a6.19,6.19,0,0,0-5.87,1.629,6.089,6.089,0,0,0-1.77,4.452l3.528,3.528a4.681,4.681,0,0,1,1.061-.125ZM9.788,13.191,7.352,10.755.8,17.308A2.75,2.75,0,0,0,4.692,21.2L10,15.886a4.614,4.614,0,0,1-.215-2.694ZM2.75,20.281A1.031,1.031,0,1,1,3.781,19.25,1.034,1.034,0,0,1,2.75,20.281Z" stroke="none"/>
    <path d="M 2.747851610183716 22.00215148925781 C 3.45146656036377 22.00215148925781 4.155081748962402 21.73359680175781 4.692191600799561 21.19648742675781 L 10.0031213760376 15.88554668426514 C 9.67656135559082 15.03046703338623 9.577732086181641 14.09804725646973 9.788281440734863 13.19140720367432 L 7.351951599121094 10.75507736206055 L 0.8035116195678711 17.30781745910645 C -0.2706983685493469 18.38202667236328 -0.2706983685493469 20.12226676940918 0.8035116195678711 21.19648742675781 C 1.340621590614319 21.73359680175781 2.044236660003662 22.00215148925781 2.747851610183716 22.00215148925781 M 2.750001668930054 18.21874618530273 C 3.321481704711914 18.21874618530273 3.781251668930054 18.67851638793945 3.781251668930054 19.24999618530273 C 3.781251668930054 19.81718635559082 3.321481704711914 20.28124618530273 2.750001668930054 20.28124618530273 C 2.182811737060547 20.28124618530273 1.718751668930054 19.81718635559082 1.718751668930054 19.24999618530273 C 1.718751668930054 18.67851638793945 2.178511619567871 18.21874618530273 2.750001668930054 18.21874618530273 M 18.13657379150391 22.00214958190918 C 18.54638862609863 22.00214958190918 18.95566749572754 21.84531211853027 19.26719093322754 21.53163719177246 L 21.53164100646973 19.26718711853027 C 22.15469169616699 18.63984680175781 22.15469169616699 17.62577629089355 21.53164100646973 17.00273704528809 L 16.50000190734863 11.97109699249268 C 15.50742053985596 10.97851753234863 14.02499961853027 10.78515625 12.83047199249268 11.37382698059082 L 8.250001907348633 6.793356895446777 L 8.250001907348633 4.124997138977051 L 2.750001668930054 -3.003234951393097e-06 L 1.631469672247476e-06 2.749996900558472 L 4.125001430511475 8.249997138977051 L 6.793361663818359 8.249997138977051 L 11.3738317489624 12.83046722412109 C 10.78945159912109 14.02499675750732 10.97851181030273 15.50742721557617 11.97109127044678 16.49999618530273 L 17.00273132324219 21.53163719177246 C 17.31640625 21.84531211853027 17.72675895690918 22.00214958190918 18.13657379150391 22.00214958190918 M 18.30469131469727 11.83359718322754 C 18.98359107971191 11.53710746765137 19.62812232971191 11.12460708618164 20.18672180175781 10.56601715087891 C 21.78086090087891 8.971877098083496 22.32226181030273 6.728907108306885 21.81523132324219 4.692186832427979 C 21.72070121765137 4.305466175079346 21.23515129089355 4.172268390655518 20.95156097412109 4.455856800079346 L 17.75469207763672 7.652737140655518 L 14.8371114730835 7.167187213897705 L 14.35156154632568 4.249607086181641 L 17.54844093322754 1.05273699760437 C 17.83203125 0.7691370248794556 17.69453239440918 0.2835969924926758 17.30351257324219 0.1847669929265976 C 15.2667818069458 -0.3179632425308228 13.02383136749268 0.2234372645616531 11.43398189544678 1.813277006149292 C 10.20937156677246 3.037887096405029 9.633591651916504 4.65351676940918 9.663671493530273 6.264846801757812 L 13.19140148162842 9.792576789855957 C 13.53945159912109 9.710936546325684 13.90039157867432 9.667966842651367 14.25273132324219 9.667966842651367 C 15.46875190734863 9.667966842651367 16.61172103881836 10.14062690734863 17.47109222412109 10.99999713897705 L 18.30469131469727 11.83359718322754 M 2.747851610183716 23.50215721130371 C 1.61290168762207 23.50215721130371 0.5457116365432739 23.06000709533691 -0.2571483552455902 22.25714683532715 C -1.914098381996155 20.60017776489258 -1.914098381996155 17.90410614013672 -0.2571483552455902 16.24715614318848 L 6.20390510559082 9.7818603515625 L 6.172041416168213 9.749997138977051 L 3.375001668930054 9.749997138977051 L -1.980568408966064 2.609246969223022 L 2.609251737594604 -1.980573058128357 L 8.934395790100098 2.763293027877808 C 9.295292854309082 2.026108264923096 9.778169631958008 1.347769141197205 10.37332153320312 0.7526170015335083 C 11.82384204864502 -0.6978830099105835 13.7544116973877 -1.496713042259216 15.80942153930664 -1.496713042259216 C 16.43399238586426 -1.496713042259216 17.05762100219727 -1.420953035354614 17.6629810333252 -1.271522998809814 L 17.67108154296875 -1.269502997398376 C 18.37552070617676 -1.091452956199646 18.93300247192383 -0.5459229946136475 19.12596130371094 0.1542069911956787 C 19.31817245483398 0.8516370058059692 19.12013244628906 1.602347016334534 18.60912132263184 2.113377094268799 L 15.95789813995361 4.764592170715332 L 16.14078330993652 5.863515377044678 L 17.23970603942871 6.046400547027588 L 19.89090156555176 3.395196914672852 C 20.27216148376465 3.013936996459961 20.77812194824219 2.803966999053955 21.31558227539062 2.803966999053955 C 22.24661254882812 2.803966999053955 23.05085945129395 3.433244943618774 23.27193832397461 4.334402561187744 C 23.58531951904297 5.596597194671631 23.57362174987793 6.927151203155518 23.23802185058594 8.182467460632324 C 22.89105224609375 9.480377197265625 22.20269203186035 10.67136669158936 21.24738121032715 11.62667655944824 C 20.75083160400391 12.12321949005127 20.18027496337891 12.54804134368896 19.54505157470703 12.89482688903809 L 22.5923023223877 15.94207668304443 C 23.79732131958008 17.1470775604248 23.7989616394043 19.1128978729248 22.59593200683594 20.32419776916504 L 22.5923023223877 20.32784652709961 L 20.32965087890625 22.59049797058105 C 19.74481582641602 23.17842674255371 18.96610069274902 23.50214767456055 18.13657188415527 23.50214767456055 C 17.30815124511719 23.50214767456055 16.52880096435547 23.17902755737305 15.94207191467285 22.5922966003418 L 10.91043186187744 17.5606575012207 C 10.83310317993164 17.48332977294922 10.75889682769775 17.40370178222656 10.68793106079102 17.32205772399902 L 5.752851486206055 22.25714683532715 C 4.949991703033447 23.06000709533691 3.882801532745361 23.50215721130371 2.747851610183716 23.50215721130371 Z" stroke="none" fill="#626262"/>
  </g>
</svg>
