<svg width="512" height="512" xmlns="http://www.w3.org/2000/svg" aria-hidden="true" focusable="false" data-prefix="fas" data-icon="search-plus" class="svg-inline--fa fa-search-plus fa-w-16" role="img">
 <g>
  <title>Layer 1</title>
  <path fill="#040054" d="m304,192l0,32c0,6.6 -5.4,12 -12,12l-56,0l0,56c0,6.6 -5.4,12 -12,12l-32,0c-6.6,0 -12,-5.4 -12,-12l0,-56l-56,0c-6.6,0 -12,-5.4 -12,-12l0,-32c0,-6.6 5.4,-12 12,-12l56,0l0,-56c0,-6.6 5.4,-12 12,-12l32,0c6.6,0 12,5.4 12,12l0,56l56,0c6.6,0 12,5.4 12,12zm201,284.7l-28.3,28.3c-9.4,9.4 -24.6,9.4 -33.9,0l-99.8,-99.7c-4.5,-4.5 -7,-10.6 -7,-17l0,-16.3c-35.3,27.6 -79.7,44 -128,44c-114.9,0 -208,-93.1 -208,-208s93.1,-208 208,-208s208,93.1 208,208c0,48.3 -16.4,92.7 -44,128l16.3,0c6.4,0 12.5,2.5 17,7l99.7,99.7c9.3,9.4 9.3,24.6 0,34zm-161,-268.7c0,-75.2 -60.8,-136 -136,-136s-136,60.8 -136,136s60.8,136 136,136s136,-60.8 136,-136z" id="svg_1"/>
 </g>

</svg>